
        <svg xmlns="http://www.w3.org/2000/svg" xmlns:xlink="http://www.w3.org/1999/xlink" version="1.1" width="3187.5" height="865.3863271077474" viewBox="0 0 3187.5 865.3863271077474">
			
			<g transform="scale(9.375) translate(10, 10)">
				<defs id="SvgjsDefs1804"/><g id="SvgjsG1805" featureKey="5TMTKC-0" transform="matrix(1.1111111111111112,0,0,1.1111111111111112,-5.555555555555555,-19.40161810980903)" fill="#fff"><path xmlns="http://www.w3.org/2000/svg" d="M91.4716187,45.1537819c0.756813-1.3730507,1.8529358-4.1683083,0.2209167-6.8684349  c-1.7768326-2.9421768-4.522934-3.6604156-6.1539001-3.8131523c0.0856171-2.2556534-0.7219315-5.6465321-4.2703094-7.8303089  c-3.9024734-2.4004631-7.4603577-1.7371922-9.3206863-1.0770912c-0.5274506-1.636776-2.0252304-4.1910324-6.2743988-5.6956825  c-4.5091934-1.5976677-7.8017693-0.3208027-9.6134796,1.1410389c-0.9259377-1.4174461-2.9236832-3.2724953-7.0925179-3.5187778  c-4.6207085-0.2774639-7.018528,1.4317169-8.1801796,2.7836285c-1.2768631-1.3276005-3.5415039-2.5743408-6.8314362-1.9316807  c-3.3338032,0.6516457-4.9013443,2.8935585-5.494854,4.6809578c-1.4163895-0.4037781-3.775629-0.5977383-6.2569542,1.2636509  c-2.6012955,1.9507084-3.239727,3.9505653-3.2793655,5.3738251c-1.7419472-0.1775761-4.1281414,0.4333725-6.2944775,3.2709084  c-1.8888721,2.4749832-1.7118235,5.0049286-1.2615385,6.6427612c-1.7979689,0.1611938-4.0478091,1.2599525-5.5413604,4.6043243  c-1.6230345,3.6361046-0.5617995,6.3452148,0.6606293,7.7985992c-1.1035151,1.4290733-1.9755464,3.9405251-0.2425828,6.9910469  c1.8524046,3.2576981,4.9631777,3.4468994,6.9947453,2.9437637c0.6527023,1.2081604,2.2133732,3.0251579,5.8452501,3.7576637  c3.2693233,0.6574554,5.4488716-0.5517578,6.6628456-1.6203918c0.8936996,1.43647,2.6678848,3.4373856,5.861105,4.1540375  c3.2851791,0.7399063,6.0888901-0.694458,7.5005226-1.6436462c1.0908318,1.3846817,3.4875946,3.7523727,7.4767418,4.3812943  c0.631031,0.0983047,1.2456818,0.1448135,1.8439484,0.1448135c4.3871765,0,7.8627472-2.4658661,9.9722023-4.4753036  c2.0968399,2.5163345,9.9879265,8.0526733,15.2329292,8.3905182c1.7410202,2.8724213,2.2539978,6.7842712,2.2590866,6.8250351  c0.051796,0.411171,0.4016647,0.7113647,0.8043823,0.7113647c0.0338287,0,0.0676498-0.0021133,0.1014709-0.00634  c0.4449997-0.0560226,0.7610474-0.4608612,0.7050247-0.9058609c-0.0206757-0.1672668-0.4794159-3.6947632-2.0682297-6.73452  c0.4567566-0.1087418,0.9458847-0.272049,1.455101-0.4749298c1.9857864,3.053894,2.2950287,7.3177948,2.2980042,7.3637772  c0.0285339,0.4280853,0.3847504,0.7578735,0.808609,0.7578735c0.0179672,0,0.0359344-0.0010605,0.0539017-0.0021133  c0.4481735-0.0295944,0.7864151-0.4154053,0.7568207-0.8625183c-0.0126877-0.1983871-0.3239746-4.5494919-2.427948-7.9368744  c5.5662003-2.8478394,12.6104279-9.5120697,12.0625687-12.0310516c-0.0214691-0.0989609-0.0671844-0.1859665-0.0961838-0.2812958  c1.3645935-0.9149704,4.3245468-3.4652672,4.637085-8.5225182C95.2134247,49.2089882,92.7601089,46.3756828,91.4716187,45.1537819z   M80.1331024,28.4853058c1.6932602,1.0418797,2.519043,2.3639965,2.9111938,3.5664101  c-0.5530777,0.0053482-1.0976334,0.1433563-1.5656281,0.2694702c-0.9322739,0.2515678-1.5294876,0.3863335-2.0199356-0.0295982  c-0.4650879-0.3958473-0.8931732-0.8493042-1.3064651-1.2874336c-1.1225433-1.1907177-2.2746811-2.4200172-4.0578461-2.1927624  c-0.4439468,0.0576077-0.7578735,0.4645557-0.700798,0.9090271c0.058136,0.4449997,0.4566269,0.7589321,0.91008,0.7007961  c0.8931732-0.1131001,1.6034851,0.5681419,2.6678925,1.6970253c0.4439392,0.469841,0.9016266,0.9565926,1.43647,1.4105759  c1.1658783,0.989357,2.5093384,0.624691,3.4934082,0.3599091c0.7495499-0.2016869,1.1636353-0.2770653,1.4595261-0.1791611  c0.0522614,0.8858376-0.0833664,1.5092087-0.0980988,1.5728264c-0.0824509,0.3429985,0.0074005,0.7050247,0.2409973,0.9692764  c0.1893387,0.2160912,0.4545746,0.339695,0.7393723,0.3581924c0.095665,0.054039,0.2023544,0.0913658,0.3186874,0.1026611  c0.3900375,0.0375252,0.6764908,0.174408,0.875206,0.4180489c0.3963776,0.4878082,0.4027176,1.3286552,0.3720627,1.6135216  c-0.0517883,0.4444695,0.2663651,0.8471909,0.7103119,0.9000397c0.0327682,0.0042305,0.0655365,0.0058136,0.0972443,0.0058136  c0.4048309,0,0.7557602-0.30336,0.8054428-0.7155914c0.0144653-0.1236725,0.0925522-0.9564629-0.1942978-1.8258514  c0.9135208,0.3937378,1.8800201,1.0834999,2.6127243,2.2962189c0.4709015,0.7799377,0.5733643,1.6021576,0.4977875,2.3612862  c-0.7072678-0.2572479-1.5540619-0.4120979-2.3982849-0.558033c-1.4163895-0.2446976-3.0219803-0.5221596-3.8083954-1.2403984  c-0.3593826-0.3276711-0.6754303-0.6273346-0.9597626-0.8979263c-1.2335281-1.1721573-2.1039047-1.9921951-3.4237137-1.9242172  c-0.0835037-0.3043518-0.189537-0.6050682-0.3371201-0.8948212c-0.7177048-1.4105759-2.0886459-2.3048058-4.0726471-2.6578445  c-1.9734344-0.3509254-3.2323303-1.2742233-3.7428589-2.7439919c-0.3775558-1.0870647-0.2327423-2.1541138-0.0438004-2.7529755  c0.0524521-0.0210743,0.1064224-0.0374565,0.155838-0.0671196C71.7468033,28.0043678,75.6513901,25.7270451,80.1331024,28.4853058z   M14.3507833,34.2465248c0.5235491-0.685997,1.0368586-1.1858978,1.5271778-1.5529442  c0.1294832,0.329525,0.2644491,0.6496658,0.3992186,0.9610176c0.5691319,1.318882,1.0583286,2.479805,0.7603188,4.1519928  c-0.7740593,0.1668091-2.1818619,0.5777206-3.4901724,1.5026665C13.1724186,38.1675568,12.8778439,36.1761551,14.3507833,34.2465248  z M7.8036809,45.0623512c0.2264638-0.5073624,0.4671311-0.9392166,0.7152638-1.3075829  c2.0554829,0.922039,3.0511837,3.4650002,3.0619516,3.4934731c0.1236696,0.3234444,0.4323158,0.5221634,0.7594595,0.5221634  c0.0956593,0,0.1923752-0.0169144,0.2875061-0.0528526c0.418046-0.1585503,0.6294479-0.6257477,0.4714251-1.044323  c-0.0494814-0.1319923-1.0996838-2.8426208-3.4487505-4.1649399c0.6668396-0.5230865,1.3200703-0.7199516,1.8496971-0.772274  c0.9262028,0.2893562,2.4359388,1.0529785,2.7633467,3.0007782l0.0813894,0.4772377  c0.5310802,3.0871201,0.8153496,5.8301888-0.5634508,7.501976c-1.8631067-0.971653-2.1078043-2.9158859-2.1171188-3.00494  c-0.0428095-0.4449997-0.4407721-0.7726707-0.8815441-0.7303925c-0.4465857,0.0412254-0.7758436,0.4354897-0.7351484,0.8826027  c0.0107021,0.1161385,0.2573814,2.4484901,2.3277941,3.9102669c-0.3603077,0.1664124-0.7607813,0.3078537-1.2242785,0.410778  c-1.8170614,0.403183-2.9679441,0.7146034-3.7028289,0.9937859c0.1372128-1.4272232,1.0825076-2.2546616,1.2378879-2.3795204  c0.267951-0.2092896,0.4175177-0.5348473,0.4122324-0.8741455s-0.1738777-0.6606293-0.448699-0.860405  C8.377636,50.8653221,6.0421782,49.0092163,7.8036809,45.0623512z M8.1276541,57.899704  c-0.1656203-0.2914047-0.2875724-0.5676117-0.3899703-0.8359604c0.0947347-0.0951309,0.1738777-0.2071724,0.2123928-0.3436584  c0.4450002-0.1712379,1.4243169-0.4777679,3.5531297-0.9502525c0.8007488-0.1778412,1.4712877-0.4395828,2.0426006-0.7610435  c0.0835037,0.6199989,0.2980757,1.1640282,0.4979162,1.6531601c0.424983,1.0400925,0.6943216,1.717701-0.2976799,2.8534546  c-0.1090698,0.0115623-0.219593,0.0159874-0.3222551,0.0607147C13.0681057,59.7325554,9.890213,61.002018,8.1276541,57.899704z   M19.5126781,63.5483513c-3.4033642-0.6861305-4.3160906-2.4243774-4.5276899-2.991333  c1.620656-1.8942871,1.0419455-3.3333359,0.561799-4.5091896c-0.1489716-0.3645363-0.2876377-0.7155304-0.3615627-1.069561  l0.8641701,0.2937164c1.7493477,0.5940361,1.7784138,2.4279442,1.7789421,2.4998207  c-0.0036983,0.4492302,0.356741,0.8149529,0.8049126,0.8191833c0.0021133,0,0.004755,0,0.0068703,0  c0.4449997,0,0.8080826-0.3593826,0.8117809-0.8043861c0.0089855-1.0601768-0.5813541-3.2714348-2.8803444-4.051506  l-1.1982498-0.40728c1.5935707-2.4288712,0.988699-5.9660797,0.5719728-8.3891335l-0.0803328-0.4714279  c-0.2466125-1.4669914-0.9945774-2.4855499-1.8666086-3.1926231c0.0515289-0.1103249,0.0871372-0.2254715,0.0994253-0.345047  c1.2168131-1.0132751,2.7036266-1.4161263,3.3690777-1.5528755c3.1102448,2.8951416,3.4099064,4.515007,3.3031483,5.2321854  c-0.1051731,0.7124214-0.684412,1.0025711-0.7235222,1.0210686c-0.4043045,0.1823349-0.5882244,0.6558723-0.4111748,1.0638771  c0.1331825,0.3060036,0.4317875,0.4888687,0.7451897,0.4888687c0.1078148,0,0.2177429-0.0221977,0.322916-0.0676498  c0.5200462-0.2262001,1.4560261-0.9476089,1.6653137-2.2181282c0.2983418-1.8160057-0.9785233-4.0599022-3.7632084-6.6664162  c0.4380627-2.2207031-0.2024841-3.7480812-0.837944-5.2191048c-0.1498299-0.3471603-0.2989349-0.7032394-0.4374027-1.0688972  c1.2911358-0.3816452,2.2213669,0.0805969,2.3738403,0.1667442c0.4095898,0.2431107,0.9322815,0.1907883,1.2847919-0.1315994  c0.351984-0.322916,0.4513435-0.8382053,0.2441692-1.2684078c-0.0105705-0.0216694-1.0189552-2.2234154,2.2699223-4.6899414  c1.4798775-1.1092625,2.8746643-1.1888027,3.845459-1.029459c-1.3595753,1.2092819-3.262188,3.2580929-3.8031769,5.6369534  c-0.0993595,0.4376011,0.1744061,0.8725605,0.6114769,0.9719181c0.0607796,0.0137405,0.1215572,0.0200825,0.1807499,0.0200825  c0.3710079,0,0.7055511-0.2552662,0.7911682-0.6315613c0.5053158-2.223877,2.5997105-4.2166004,3.7733192-5.1874599  c1.2065067,3.0892353,5.2584782,4.8728027,7.3918476,5.8063374c0.4524002,0.1981888,0.82341,0.3588543,1.0353394,0.4650822  c0.2013588,0.3023071-0.1189117,1.7097092-0.2906761,2.4659996c-0.3313713,1.4565544-0.6437187,2.8322525-0.0227242,3.6741562  c0.1865616,0.2531548,0.5396004,0.5654984,1.159008,0.6130638c1.2694664,0.0967178,3.0399513,2.2165451,3.8570175,3.5298767  c0.1543236,0.2473412,0.4191055,0.3831673,0.6907539,0.3831673c0.1458664,0,0.2938499-0.0396385,0.4275589-0.1226158  c0.3805237-0.2367668,0.4973221-0.7367325,0.2610817-1.1172562c-0.2600212-0.4191017-2.6145058-4.1017151-5.0852623-4.2449417  c-0.1707039-0.30336,0.1326561-1.6383591,0.2959633-2.3555374c0.3942642-1.7345505,0.8017387-3.5277634-0.4893951-4.2285595  c-0.2690086-0.1458664-0.6822968-0.3287296-1.1875458-0.5496445c-0.0120926-0.0052834-0.0259628-0.0114288-0.0381851-0.0167789  c-0.3634109-0.2623367-0.7716141-0.6773434-0.7619705-1.2347164c0.0074005-0.4650841,0.3017769-0.9291096,0.7874718-1.2419834  c1.0321655-0.6648579,1.2335243-1.4438725,1.220314-1.9803028c-0.0385818-1.6071796-2.0172997-2.8322525-2.4136772-3.0616226  c-0.3879204-0.2251415-0.8831291-0.0930157-1.1077423,0.295433c-0.2251434,0.387394-0.0930176,0.8841877,0.2938461,1.1093292  c0.6653862,0.3879223,1.593441,1.1933613,1.604538,1.6959686c0.0047569,0.2193298-0.2563248,0.4344311-0.4767113,0.5765972  c-0.9423218,0.6072502-1.5146904,1.5712414-1.531601,2.5796261c-0.0008583,0.0500107,0.015789,0.0970478,0.0176392,0.1466599  c-1.8689232-0.9820919-3.7929401-2.3482075-4.255579-4.1845589c0.0211411-0.0716782,0.0402985-0.1443481,0.0463772-0.2202549  c0.0105686-0.1374092,0.3107586-3.3850651,4.0414658-4.114399c3.98386-0.7790146,5.4314308,2.0664482,5.4874535,2.1800766  c0.0528488,0.1123734,0.1265106,0.2077026,0.2100792,0.2923279c0.4184456,0.8885479,1.7192879,1.8136272,5.02845,2.2915268  c1.0897751,0.1574936,1.8058968,0.4693108,2.0717316,0.9010983c0.3530426,0.5739555,0.0158577,1.5749397-0.2816925,2.4585991  c-0.256321,0.7626305-0.4989052,1.4824524-0.4006042,2.1340981c0.1072845,0.7066078,0.6236343,1.664259,1.3386993,2.9902744  c1.1336403,2.1018562,2.6863861,4.9800873,2.3994064,6.9270935c-0.3720665,2.515152,1.5057068,3.7037544,2.6271935,4.4140625  c0.2621346,0.1659508,0.6405449,0.405365,0.7895813,0.5554581c-0.4329071,1.0254288-0.8132324,1.5065651-1.5448799,2.4282112  c-0.8514214-0.5035973-1.7777557-0.8803558-3.6249428-1.1148796c-1.0961151-0.1395226-1.5791664-0.627861-2.1917038-1.246212  c-0.3717346-0.3758316-0.7883263-0.7852898-1.3541565-1.125515c0.1416397-0.0899773,0.284729-0.1783676,0.4086647-0.2533493  c0.534317-0.3239746,1.1405106-0.6907539,1.6425896-1.1690521c1.012085-0.963459,0.2959633-2.8253784-0.6098938-5.183033  c-0.4782944-1.2440987-0.9729767-2.5304756-1.094532-3.4638138c-0.3588524-2.7624874-3.8004684-6.7759438-3.9468651-6.9455948  c-0.2938461-0.3398266-0.8070221-0.3762932-1.1447372-0.0840321c-0.3398285,0.2927914-0.3773537,0.8054409-0.0845604,1.1447392  c0.9084969,1.0538368,3.3200607,4.2016029,3.5663414,6.0941772c0.1463966,1.1257095,0.676487,2.5040474,1.1886063,3.8369331  c0.4349556,1.1315269,1.1627083,3.0251579,1.0062714,3.4247055c-0.3747101,0.356739-0.878376,0.6616859-1.3645973,0.9565926  c-0.5224266,0.3161774-1.007,0.6303062-1.3453064,1.0124779c-0.5777206-0.0917587-1.2553291-0.1196404-2.0735855-0.0490189  c-0.3148537,0.0270195-0.6226425-0.0010567-0.924221-0.0706215c-0.0217972-0.0023766-0.0401649-0.0138054-0.0624924-0.0144653  c-0.0007935,0-0.0014534,0.0003967-0.0022469,0.0003967c-2.1958008-0.5545998-4.0394211-3.4599152-5.5576134-5.8551598  c-1.0760345-1.6986122-2.0056686-3.1657372-3.0082417-3.7825012c-0.3815804-0.2351837-0.8815441-0.116272-1.1167278,0.2658386  c-0.2351856,0.3821068-0.1157436,0.8820724,0.2658367,1.1167259c0.682827,0.4201622,1.5596142,1.8037834,2.4876652,3.268795  c1.5751419,2.4872704,3.4627571,5.4589806,5.9973297,6.4000473c-0.1738777,0.7328377-0.6712685,1.8761215-2.1403084,2.1352882  c-0.4412994,0.0771599-0.7362061,0.4989052-0.6585159,0.9396782c0.0697632,0.3942642,0.4122314,0.6711998,0.7985687,0.6711998  c0.0470352,0,0.0946007-0.0042267,0.1421661-0.0126839c2.2111282-0.3897057,3.1466446-2.1103134,3.4511299-3.4368591  c0.1541252,0.0016518,0.3076553,0.0056152,0.4661407-0.0084572c0.5670853-0.0482254,1.0332909-0.0420151,1.4345551,0.0013885  c-0.0074654,1.003891,0.2910767,2.1785583,0.5848579,3.3244858c0.2087593,0.8160095,0.4064178,1.5865669,0.4222717,2.0675049  c0.0229263,0.7004662-0.1809464,1.2754135-0.4131546,1.7076607c-2.3244934-1.8078117-4.4846191-2.6110687-6.4362488-2.3598328  c-1.0523186,0.1370125-1.8464622,0.559948-2.4256363,0.9963608c-0.6688194-1.8119087-2.2384758-3.4488144-4.704937-4.8792763  c-0.5853825-0.3393669-1.1140842-0.6897659-1.6166916-1.0451164c0.234127,0.0317764,0.4792194,0.0718117,0.7388477,0.1175919  c0.5459442,0.0961876,1.1098576,0.1955452,1.7086525,0.2182732c0.0528507,0.0021133,0.1062279,0.00317,0.1590786,0.00317  c1.8772469,0,3.6503754-1.2314148,3.7270088-1.2847939c0.3667793-0.2579079,0.45504-0.7642136,0.1976585-1.1309967  c-0.2584381-0.3673096-0.7652702-0.4545135-1.1309967-0.1976585c-0.0147972,0.011097-1.5088787,1.0554199-2.8914433,0.9877701  c-0.4878082-0.0184975-0.9962292-0.1078148-1.488266-0.1944885c-0.9601593-0.1689873-1.9447613-0.333683-2.8120365,0.0203476  c-1.3550167-1.3005142-2.2190533-2.687706-2.55756-4.1521873c-0.6072521-2.6266632,0.7076664-4.6286354,0.7192936-4.645546  c0.2531528-0.3699532,0.1580219-0.8752022-0.2119312-1.1283569c-0.3694229-0.2526245-0.8746738-0.1580238-1.128355,0.2119293  c-0.0702915,0.1030579-1.7218647,2.5674706-0.9692745,5.891758c0.6611576,2.9205132,2.9294949,5.5223351,6.7415924,7.7325363  c2.710165,1.5717697,4.1445236,3.3412018,4.2639656,5.2575569c0.1793633,2.8876114-2.6278515,5.4425278-3.3846684,6.0760727  c-0.7930851,0.0365982-1.5846519,0.1757278-2.3131294,0.4879417c-0.8736153,0.3740463-1.5591507,0.9629326-2.0829639,1.7227898  c-0.0989628,0.0763664-0.1896,0.164032-0.2583065,0.2728386C25.0138721,61.684845,23.3052216,64.3125687,19.5126781,63.5483513z   M64.0010529,54.9907532c0.0070038,0.0092506,0.0083923,0.0206108,0.0158615,0.0296631  c0.0074615,0.0090485,0.018692,0.0118256,0.0264893,0.0204773c0.5612717,0.6863289,0.8372116,1.5547943,1.1362152,2.5047112  c0.1426315,0.4529953,0.2946396,0.9264679,0.4867554,1.3910217c-0.5979385,0.2143745-1.1447449,0.442688-1.6597672,0.6789284  c-0.448967-0.8546562-1.0023079-1.6613503-1.7083893-2.3437119c-1.6616135-1.6055946-3.858078-2.3676987-6.4815674-2.2831383  c-2.5368195,0.0866737-4.2354279,0.4619141-5.4758263,0.7346191c-2.2699242,0.5010223-2.9538078,0.6490059-5.4826965-1.7472305  c-0.1208305-0.1145554-0.2386856-0.2106094-0.3587227-0.3200111c0.4113731-0.6614876,0.8165398-1.6208534,0.777298-2.8224716  c-0.0211411-0.6595726-0.2404709-1.5136337-0.4719543-2.4173775c-0.1912537-0.7449913-0.4107132-1.6046028-0.4981804-2.3249512  c0.3002548,0.2150993,0.5566444,0.464817,0.8195114,0.7304573c0.6981506,0.7055511,1.4893227,1.5046501,3.1408958,1.7149925  c1.3945885,0.1768532,2.116394,0.4183769,2.7790718,0.7777596c-1.2600212,1.3540955-2.2394714,1.6360512-2.2806931,1.6470184  c-0.4317894,0.1014709-0.7034378,0.5306168-0.6077805,0.9650459c0.0829773,0.379467,0.4191055,0.6373749,0.7922287,0.6373749  c0.0576057,0,0.1157417-0.00634,0.1744041-0.0190239c0.1705742-0.0377235,1.6011696-0.418972,3.312397-2.3596382  c0.419632,0.2696037,0.9037437,0.5656967,1.5345116,0.8977966c1.5115204,0.7969818,2.9078255,1.1679916,4.3855209,1.5611992  c1.2789803,0.3392982,2.6023521,0.6912804,4.2417717,1.3561401C63.2147102,54.2499237,63.6588516,54.5881653,64.0010529,54.9907532z   M75.0499496,73.3161545c-1.2125854,0.2876358-2.7766876-0.0081253-4.4439163-0.6221161  c1.9647751-0.049675,4.5527954-0.2092209,7.2682419-0.6462936c0.1556473-0.0250397,0.2976837-0.0557556,0.4477768-0.0831757  C77.1905899,72.5907822,76.0776291,73.0731735,75.0499496,73.3161545z M73.3756561,58.9228859  c3.4597168-0.3775482,6.5910339-0.3698845,9.1285095-0.0451202c-1.3758926,0.8202362-4.165863,2.1836433-8.3494949,2.8271637  c-4.3034744,0.6628761-9.0175323,0.6330147-11.6026382,0.5459442  C64.7187653,60.7844734,68.0189362,59.5088654,73.3756561,58.9228859z M76.6164398,64.9583969  c-8.3603363,1.2341919-14.8356285,0.4738693-17.008503,0.1369476c0.3711395-0.5137024,0.8099327-1.0394974,1.3497963-1.5607338  c0.743145,0.0422783,2.3118095,0.1152115,4.3170166,0.1152115c2.6171494,0,5.9551773-0.125782,9.0849762-0.60672  c6.5682449-1.0115585,9.8671646-3.6731033,10.0035172-3.7862015l-0.0611725-0.0746498  c0.9345932,0.2039337,1.7552261,0.4595337,2.4280777,0.7687721C85.655571,61.267395,82.7215118,64.0557785,76.6164398,64.9583969z   M67.3348541,67.0005341c2.6985397,0,5.909729-0.1765213,9.4803009-0.7039642  c6.7995987-1.005806,9.9591904-4.17062,11.0915756-5.6415787c0.5108643,0.4098549,0.8384018,0.8754005,0.9509048,1.3924103  c0.0177078,0.1295471-0.0607758,0.3389015-0.1827927,0.5821457c-0.8194427,0.9095535-4.2633743,4.2517471-11.5774689,5.4850769  c-6.6860962,1.1276245-12.2584381,0.6308975-13.9193954,0.4368057c-0.9700699-0.6968994-1.8144836-1.3635406-2.464016-1.9323425  C62.2375717,66.8058472,64.4993668,67.0005341,67.3348541,67.0005341z M82.309082,69.2529526  c-1.0675735,0.5579681-2.5739441,1.1251144-4.6504364,1.4587326c-4.4371185,0.7139435-8.6500168,0.6672363-10.0200272,0.6278  c-0.7261047-0.3862686-1.4411697-0.7999573-2.1351547-1.2319412c0.8283615,0.0468369,1.7868652,0.0819855,2.8841705,0.0819855  c2.4681168,0,5.548233-0.1691208,8.9338303-0.7409668c3.1710205-0.5345764,5.6421661-1.4406357,7.5374527-2.3983459  C84.0723038,67.7884674,83.2123642,68.5357056,82.309082,69.2529526z M40.3013687,64.4912033  c-0.0419502-0.0753174-0.1115799-0.1254578-0.1688576-0.1877518c-0.0391083-0.6750984-0.0930824-1.2308884-0.1487732-1.6754227  c0.626606-0.0016518,1.191246-0.2086296,1.6838112-0.3945961c1.1257133-0.4265671,1.9514999-0.7304573,3.5500259,1.4675903  c-0.1564369,1.8683891,0.383297,3.5691185,1.6099548,5.0825539C42.3551331,68.0340881,40.3816338,64.6338959,40.3013687,64.4912033z   M49.1815491,68.8759308c-1.8452682-1.5580292-2.5969315-3.2606049-2.3330765-5.3148956  c0.1712341-1.3286591,0.721405-1.5569725,0.9026833-1.6330757c1.3492699-0.557045,4.2053032,1.0358658,5.6882858,2.1732063  c0.3572655,0.2737656,0.866745,0.2061157,1.1383934-0.1490402c0.2727089-0.3551521,0.2061195-0.8646317-0.1490364-1.1383972  c-0.4682541-0.3593788-4.645546-3.488121-7.2996902-2.3846054c-0.4703026,0.1948204-1.0171738,0.5825424-1.4127579,1.3298454  c-1.7664566-1.8737411-3.1998901-1.5831985-4.6232834-1.0444527c-0.7610435,0.2885628-1.1812057,0.425972-1.7038956,0.1247253  c-1.6706009-0.9629326-0.324501-4.6751442-0.3107605-4.7131958c0.1585503-0.4185753-0.0523224-0.8868294-0.4714241-1.0464363  c-0.4175186-0.1574936-0.8863029,0.0507355-1.0464363,0.4703674c-0.0744553,0.1954155-1.7142029,4.6246719,0.6900253,6.4625435  c0.0693016,0.3783417,0.1870918,1.1466522,0.2573814,2.3037491c-0.5709801,0.4712906-3.2528076,2.4898453-6.4248199,1.7762985  c-3.8543777-0.8656921-5.0033436-4.1508675-5.0487957-4.2851067c-0.0026417-0.008194-0.0083237-0.014534-0.0111637-0.0225945  c0.2919979-0.2971535,0.6320896-0.5396042,1.0385742-0.7141418c0.6048069-0.2592964,1.2864456-0.3614311,1.9775963-0.3719978  c0.0014534,0,0.00284,0.000988,0.0042934,0.000988c0.00284,0,0.0055485-0.0013199,0.0083904-0.0013199  c2.3222427-0.0316429,4.7528992,1.0159836,4.7846069,1.029789c0.4111786,0.1786346,0.8889465-0.0052834,1.0696945-0.4164619  c0.180748-0.4090614-0.0047569-0.887886-0.4143486-1.0696907c-0.1098633-0.048027-1.6349907-0.709713-3.5346985-1.0153198  c1.2577744-1.3283958,2.8675957-3.5509491,2.7866669-6.1345406c0.279911-0.3443871,1.0231857-1.0961838,2.3002472-1.2512321  c1.8518753-0.2325439,4.1714783,0.9195976,6.6966705,3.3126602c3.034668,2.878231,4.2512817,2.7503319,6.9503517,2.1552391  c1.2440948-0.2737656,2.7926102-0.615181,5.1803894-0.6965675c2.171093-0.0824471,3.9648361,0.5401306,5.2977219,1.8275642  c0.5727654,0.5533447,1.0264854,1.2102051,1.3980255,1.9100761c-0.8736839,0.5024109-1.605793,1.0308495-2.2269173,1.5653648  c-0.2441025-1.171032-0.7811966-2.0626183-1.6265373-2.6361771c-1.8656158-1.2652397-4.4288597-0.4365463-4.5377312-0.4016647  c-0.4249153,0.140583-0.6553459,0.6003799-0.5147629,1.0263557c0.140583,0.4249153,0.5940399,0.6553459,1.0263557,0.5147629  c0.0179672-0.0074005,1.9269218-0.6014366,3.1139412,0.2040024c0.6095619,0.4131584,0.9545441,1.179882,1.0426064,2.2603416  C58.5385742,63.3055038,54.7035561,68.4208221,49.1815491,68.8759308z M89.1732864,59.6095467  c-1.5911255-1.4357491-4.4222565-2.1866188-7.6479111-2.4628296c0.8452148-0.7371941,1.5993195-1.5478554,2.1615829-2.3927345  c0.7543716-0.187355,2.9633865-0.5619316,4.0026855,1.128952c0.1532669,0.2494545,0.419632,0.3868637,0.6923447,0.3868637  c0.1448059,0,0.2917328-0.0391083,0.4238586-0.1204987c0.3815765-0.2346573,0.5010223-0.7346191,0.2663651-1.1161995  c-1.0907669-1.7753105-2.9939728-2.1560326-4.5318527-2.0537643c0.1240692-0.4115715,0.2055206-0.8226166,0.2055206-1.2271881  c0-0.4481697-0.3636093-0.811779-0.8117828-0.811779c-0.4481659,0-0.8117828,0.3636093-0.8117828,0.811779  c0,0.5968819-0.2542038,1.2548676-0.667366,1.9215088c-0.0062103,0.0114937-0.0148621,0.0210075-0.0204773,0.0327682  c-0.7387161,1.1766472-1.9931183,2.3737068-3.3727112,3.3201256c-1.9505081-0.0315132-3.9587555,0.0746498-5.8615723,0.2833443  c-2.3275299,0.2543411-4.2894669,0.6487389-5.9728165,1.1309967c-0.1850433-0.4237938-0.3416061-0.8839874-0.4992371-1.3836212  c-0.2522278-0.8010139-0.5269852-1.6503868-0.995636-2.4275513c2.2662888-2.0442505,3.172081-4.0309639,3.3118668-6.4266701  c0.0006638-0.0087204,0.0056152-0.0158539,0.006012-0.0246391c0.0003357-0.0070686-0.0032349-0.0130806-0.0031052-0.0201492  c0.070755-1.304348-0.0777512-2.7284012-0.3605042-4.3537483c-0.1543198-0.8826027,0.0105743-1.6468163,0.5010223-2.3365135  c1.4407043-2.0257568,5.1042862-2.6456909,5.1412811-2.6520309c0.4418335-0.0724068,0.7430801-0.4893951,0.6712036-0.9312248  c-0.0718765-0.4423561-0.4946823-0.744133-0.9301682-0.6711998c-0.1775742,0.0285378-4.3643799,0.7303925-6.2025146,3.30896  c-0.7462463,1.0474968-1.0094452,2.2450867-0.7811279,3.5600014c0.1999664,1.1485062,0.3297195,2.1633644,0.355217,3.0893021  c-2.1548386-0.6939926-2.7174988-3.4920883-2.7429962-3.625206c-0.0835037-0.4391861-0.5147629-0.7325058-0.9470825-0.6474152  c-0.4397125,0.0824471-0.7303925,0.5041924-0.6490021,0.9444351c0.2845993,1.5436287,1.53022,4.3659019,4.2483749,4.9835243  c-0.2503128,1.6678276-1.0298538,3.0758247-2.6562576,4.5560989c-0.4010696-0.342865-0.8868942-0.6451035-1.4853592-0.8880196  c-1.7356071-0.7029076-3.1699638-1.0844879-4.4362602-1.4206161c-1.4459839-0.3847504-2.6953659-0.7166519-4.045166-1.4280167  c-0.5005608-0.2629967-0.9009666-0.5034676-1.2559242-0.7277489c0.7328377-0.9250793,1.1974602-1.5394669,1.7104378-2.7841568  c0.0001984-0.0004654,0.0001335-0.0008583,0.0003281-0.0013237c1.3685608-2.8874779,1.389637-7.9045639,1.389637-8.1180801  c0-0.4481697-0.3625526-0.811779-0.8107262-0.8123093h-0.0010567c-0.4481697,0-0.8107262,0.3630829-0.8117828,0.8107262  c0,0.0408249-0.0163803,3.405941-0.7264938,6.0037346c-0.1695824-0.1185837-0.3410835-0.2305603-0.5017471-0.3323631  c-1.2726364-0.805439-2.0928726-1.4364738-1.8899307-2.8047676c0.3657265-2.4807968-1.2652359-5.5048943-2.5764542-7.935482  c-0.5396004-1.0004578-1.097702-2.0352688-1.162178-2.4622993c-0.0396385-0.2626667,0.1585503-0.8524761,0.3340149-1.3730526  c0.390564-1.160593,0.8767853-2.6055222,0.125782-3.8268948c-0.5411873-0.8799591-1.5955505-1.4222031-3.2222862-1.6573868  c-2.0445824-0.2951698-3.0314293-0.7379894-3.4774857-1.0634823c0.0010567-0.00284,0.00317-0.0049534,0.0041618-0.0077953  c0.0039635-0.0116272,0.1668091-0.4266338,0.625946-0.9387531c0.00951-0.0101089,0.0178375-0.020216,0.0268211-0.0307865  c0.844944-0.924881,2.665905-2.1473103,6.330349-1.9324741c0.5419159,0.0321083,1.0256958,0.101408,1.4736671,0.1906586  c-0.9419937,1.5035267-0.2604866,2.877636,0.2735672,3.9432983c0.3868637,0.7705574,0.7208786,1.4359436,0.563385,2.1034431  c-0.5792427,2.464941-0.6976242,2.7429352-1.2631264,2.9765339c-0.4143448,0.1712341-0.6120071,0.6458302-0.4407692,1.0601768  c0.1294823,0.3134041,0.4317856,0.502079,0.7510033,0.502079c0.1030579,0,0.2082291-0.0195541,0.3091736-0.061306  c1.3941917-0.5760689,1.6203918-1.5368881,2.2250023-4.1054173c0.2917328-1.2414551-0.2314873-2.2836628-0.6933975-3.2037888  c-0.5594215-1.1152744-0.8929062-1.8086052-0.0757103-2.7093067c2.2561836,0.9957657,2.7090454,2.6828823,2.7309113,2.769556  c0.0305862,0.1384678,0.0946007,0.2605534,0.1716995,0.3731232c-0.1297493,2.2355061,1.329052,3.682085,2.879879,5.1967773  c0.3023071,0.2949047,0.6120071,0.5977364,0.9206543,0.916954c1.2182007,1.2568474,0.2031441,3.0250874-0.2186661,3.6422482  c-3.0367851,0.6099586-5.5946732-0.5424423-5.6212997-0.554203c-0.4037743-0.1865616-0.8889427-0.0105705-1.0770874,0.3953209  c-0.1881485,0.4058914-0.0137444,0.8873596,0.3921471,1.076561c0.1004181,0.0465088,1.94701,0.8910599,4.4753685,0.8910599  c0.6846123,0,1.4238548-0.0774918,2.1862221-0.2336655c0.7362061,0.3741798,3.0116768,1.887352,1.594696,5.7977524  c-0.4460602,1.2308846-0.857235,2.2286987-1.2208443,3.1086578c-1.1447411,2.7756996-1.8360214,4.4510574,0.2462807,6.0333977  c0.1469269,0.1120415,0.3192177,0.165947,0.4904518,0.165947c0.2452278,0,0.4872818-0.1099281,0.6468887-0.3202705  c0.2716522-0.3572693,0.201889-0.8667488-0.1543236-1.1373405c-1.0274086-0.7811279-0.9343948-1.1997032,0.2716522-4.1228561  c0.3509254-0.8508911,0.787468-1.9100113,1.246212-3.1741943c1.5696564-4.3300285-0.560215-6.5592575-1.849762-7.4577141  c0.7927551-1.3846779,1.3793945-3.5668716-0.2410011-5.2401142c-0.3192139-0.3303146-0.6405449-0.6437168-0.9534187-0.949192  c-1.5136986-1.4776955-2.4395065-2.4607792-2.4086571-3.8418903c0.0618362-0.0561543,0.1224174-0.1142883,0.1709709-0.1853065  c0.0253716-0.0354099,2.5790977-3.6213074,8.3091354-1.5892105c1.0689011,0.3784084,1.9036026,0.8295517,2.5727539,1.3034878  c-0.9969559,0.2054558-2.1399765,0.6608944-3.1149979,1.6270638c-1.3286591,1.3175602-1.2113304,2.55056-1.1257133,3.4511299  c0.0708199,0.7467747,0.0824471,1.0659904-0.3530388,1.4739952c-0.3266182,0.3070621-0.3424721,0.8207664-0.0359383,1.1479111  c0.1596069,0.1696491,0.3762932,0.2557964,0.5919228,0.2557964c0.1997757,0,0.3995476-0.0729351,0.5559845-0.2198582  c1.0316391-0.9698048,0.9354553-1.9908733,0.8572311-2.8111115c-0.0761032-0.7943401-0.1300125-1.3682957,0.6532364-2.1446667  c1.1522675-1.1427574,2.6799698-1.3093681,3.5261765-1.3056679c0.9420547,1.2517605,0.9896851,2.3418655,0.9914703,2.4139385  c0.0001984,0.0794086,0.0146637,0.1561737,0.0315094,0.2318821c-0.3928757,0.9881039-0.5627899,2.5391293-0.0389099,4.0479412  c0.2151642,0.6205273,0.5933151,1.3123417,1.20327,1.9469395c-0.3465652,0.5542717-1.0564804,1.4767075-2.161972,1.879425  c-1.0031052,0.3673134-2.1605225,0.2314873-3.4342194-0.3990173c-0.4058914-0.2008324-0.8889465-0.0338249-1.0876617,0.3667793  c-0.1987152,0.4016647-0.0348816,0.8889427,0.3667831,1.0876617c1.0379791,0.5147629,2.0379105,0.7721443,2.9881592,0.7721443  c0.5940399,0,1.1690521-0.1004181,1.7218628-0.3023033c1.4649506-0.5329323,2.4031754-1.6498566,2.903801-2.4138756  c0.6659088,0.3768883,1.4714813,0.6902237,2.4911652,0.8717003c1.4554977,0.2589684,2.434288,0.8619881,2.9099426,1.7921562  c1.0358658,2.0283966-0.4101181,5.0720482-0.4249191,5.1027031c-0.1944885,0.4032478-0.0264206,0.8889427,0.376297,1.0839615  c0.1141586,0.0554924,0.2357101,0.0813866,0.3540955,0.0813866c0.3012466,0,0.5898132-0.1675339,0.7303925-0.4560966  c0.0524521-0.109005,0.9371033-1.969799,0.9515076-4.023632c0.5177994,0.0267563,0.9680176,0.3972359,2.103241,1.4751854  c0.2917404,0.2774658,0.615181,0.5850563,0.983017,0.9206543c1.1383972,1.0374527,2.991333,1.3577271,4.6275787,1.6404762  c0.6959763,0.1203651,1.702446,0.2975464,2.2731628,0.5314751c-0.32827,0.8130379-0.7280121,1.359314-0.7362747,1.3706093  c-0.361496,0.476181-0.2674179,1.1553078,0.2092896,1.5162773c0.0351486,0.026886,3.4836349,2.6916008,3.4141998,6.3076897  c-0.0569458-0.1023293-0.1072235-0.2061806-0.1702423-0.3070602c-1.7028427-2.7260208-5.2121048-4.1709518-7.1559448-4.4785385  c-0.4439392-0.0644798-0.8593445,0.2325401-0.9291077,0.6754265s0.2325439,0.8582916,0.6754303,0.9291077  c1.3392258,0.2114029,4.5757828,1.4015923,6.032341,3.7344093c0.6075821,0.9725761,0.8255844,2.0480156,0.675293,3.2030602  C91.0952606,58.1226006,89.8410492,59.1603165,89.1732864,59.6095467z"/><path xmlns="http://www.w3.org/2000/svg" d="M27.3361168,41.7449341c0.0877323,0.0306511,0.1765213,0.0454521,0.263195,0.0454521  c0.3218594,0,0.6194077-0.1997757,0.7457199-0.5195198c0.1601353-0.4058914-0.0449238-0.8720322-0.443943-1.0474968  c-0.0132141-0.0058136-0.3192177-0.1453362-0.4967937-0.6299744c-0.1976604-0.5396042-0.3398285-1.8333778,0.9306946-4.4336166  c0.7182369-1.4692421,1.6166935-2.3592415,2.6710567-2.6451607c1.4708252-0.3974342,2.8422928,0.4915085,2.8734741,0.5115929  c0.3710098,0.2499809,0.8741455,0.1522064,1.1251831-0.2172165c0.2515678-0.3710098,0.1553802-0.8757305-0.2156296-1.1278267  c-0.0808601-0.0539074-1.9877014-1.3239021-4.1868038-0.7393761c-1.5353031,0.4085331-2.7889137,1.5876236-3.7259502,3.5055656  c-1.2044601,2.4644089-1.5247326,4.4230461-0.9513073,5.8209381C26.3811111,41.381321,27.2399292,41.7111092,27.3361168,41.7449341z  "/><path xmlns="http://www.w3.org/2000/svg" d="M85.514328,45.0945892c0.1458664-0.4238586-0.079277-0.8857727-0.5031357-1.0316391  c-0.2114029-0.0713463-2.0971069-0.6817703-3.5018692,0.1273689c-0.679657,0.3921509-1.1288834,1.0533066-1.2969437,1.9126549  l-0.1078186,0.5639153c-0.5077591,2.6765404-1.0747147,4.9060974-2.631813,5.2878075  c-0.0433426-0.0307159-0.0887222-0.0642776-0.1290894-0.0915604c-0.1532669-0.1035881-0.2748184-0.1849785-0.4270325-1.6151085  c-0.2896194-2.7080536-1.8455353-5.5144081-3.6995239-6.6718292c-0.3815765-0.2372971-0.881546-0.1220856-1.1183167,0.2589684  c-0.2378235,0.3799934-0.1215515,0.881012,0.2579117,1.1183128c1.4428177,0.9000397,2.7080536,3.2502975,2.9448242,5.4678993  c0.1023331,0.9584389,0.2175446,1.542038,0.3961105,1.9472046c-0.8239365,0.3176956-1.3582535,0.7827797-1.8125,1.1857643  c-0.6743698,0.5993233-1.2060471,1.0728607-2.6784592,1.0918884c-0.4481659,0.00634-0.8064957,0.3741798-0.8012085,0.8223495  c0.00634,0.4449997,0.367836,0.8012123,0.8117828,0.8012123c0.0031662,0,0.0074005,0,0.0105667,0  c2.0770187-0.0274811,2.9585648-0.8107262,3.7365189-1.5020065c0.6342087-0.563385,1.135231-1.0083847,2.3814392-1.1236  c3.1424866-0.2885628,3.843277-3.9796333,4.3538132-6.6749992l0.1067581-0.5544014  c0.1025314-0.5253334,0.3403549-0.7171783,0.5115891-0.8165398c0.6479492-0.3757629,1.8106537-0.1194382,2.1668701,0.0010605  C84.9076004,45.7425346,85.3695145,45.5179214,85.514328,45.0945892z"/><path xmlns="http://www.w3.org/2000/svg" d="M28.1537132,58.0709381c2.8798161-1.4385872,3.178421-4.1720085,3.1900482-4.28722  c0.0433369-0.4460564-0.2827511-0.8434944-0.7293358-0.8868294c-0.4386578-0.0517921-0.8429642,0.2822189-0.8868294,0.7282791  c-0.001585,0.0200806-0.2135143,1.9512329-2.2995186,2.9934425c-0.4443398,0.2218399-0.9596977,0.3629494-1.4932213,0.4762497  c-1.6802444-3.6704597-0.0989628-7.2765045-0.0817204-7.3140297c0.1844482-0.4069481,0.0047569-0.8889427-0.4027195-1.0739174  c-0.4074764-0.1860352-0.887886-0.0074005-1.0739193,0.3995476c-0.0374584,0.0813217-0.4317207,0.965641-0.6718597,2.3083038  c-0.8214264,0.0315132-2.1658745-0.1858978-2.7797966-0.7418175c-0.3324299-0.3001938-0.8445492-0.2769394-1.1468544,0.0560188  c-0.3007183,0.3329582-0.2753487,0.8466644,0.0570793,1.1468544c0.9338665,0.8460007,2.5366859,1.1508141,3.6987324,1.1572227  c-0.0494804,1.298996,0.1147518,2.8078766,0.7550335,4.3640518c-1.7511959,0.3224564-3.6324043,0.8981285-3.4998169,3.4569435  c0.0227261,0.4333725,0.381052,0.7695007,0.8101959,0.7695007c0.0137405,0,0.0285397,0,0.0428085-0.0010567  c0.4476433-0.0232544,0.7916985-0.4048347,0.7684441-0.8530045c-0.0639477-1.2356415,0.4909801-1.4956665,2.7307796-1.874073  C26.1068192,58.7326241,27.2008209,58.5476494,28.1537132,58.0709381z"/></g><g id="SvgjsG1806" featureKey="7UBp9i-0" transform="matrix(1.7895489994372844,0,0,1.7895489994372844,119.1410155928137,13.372226178229779)" fill="#fff"><path d="M6.3 5.380000000000001 c1.7467 0 3.1366 0.40002 4.17 1.2 s1.55 1.9333 1.55 3.4 l-3.04 0 c-0.04 -0.72 -0.28334 -1.26 -0.73 -1.62 s-1.1367 -0.54 -2.07 -0.54 c-0.65334 0 -1.18 0.14334 -1.58 0.43 s-0.6 0.68332 -0.6 1.19 c0 0.41334 0.12334 0.71334 0.37 0.9 s0.59666 0.35332 1.05 0.49998 s1.2467 0.36 2.38 0.64 c1.1867 0.29334 2.1 0.61334 2.74 0.96 s1.1267 0.79 1.46 1.33 s0.5 1.2033 0.5 1.99 c0 0.90666 -0.24 1.7133 -0.72 2.42 s-1.18 1.2433 -2.1 1.61 s-1.96 0.55 -3.12 0.55 c-1.7733 0 -3.23 -0.44334 -4.37 -1.33 s-1.71 -2.1034 -1.71 -3.65 l0 -0.1 l3.04 0 c0 0.84 0.28666 1.49 0.86 1.95 s1.3333 0.69 2.28 0.69 c0.84 0 1.5167 -0.15 2.03 -0.45 s0.77 -0.74334 0.77 -1.33 c0 -0.38666 -0.14 -0.71332 -0.42 -0.97998 s-0.65334 -0.48332 -1.12 -0.64998 s-1.2533 -0.37666 -2.36 -0.63 c-1.28 -0.32 -2.2134 -0.66 -2.8 -1.02 s-1.0333 -0.79666 -1.34 -1.31 s-0.46 -1.13 -0.46 -1.85 c0 -0.89334 0.25666 -1.6733 0.77 -2.34 s1.1833 -1.16 2.01 -1.48 s1.68 -0.48 2.56 -0.48 z M20.02 9.38 c1.5067 0 2.5134 0.57332 3.02 1.72 c0.78666 -1.1467 1.8333 -1.72 3.14 -1.72 c1.2933 0 2.2434 0.32666 2.85 0.98 s0.91 1.5533 0.91 2.7 l0 6.94 l-2.84 0 l0 -5.98 c0 -0.90666 -0.13666 -1.5333 -0.41 -1.88 s-0.71668 -0.52 -1.33 -0.52 c-1.2667 0 -1.9 0.86666 -1.9 2.6 l0 5.78 l-2.84 0 l0 -6.1 c0 -0.88 -0.14 -1.48 -0.42 -1.8 s-0.71334 -0.48 -1.3 -0.48 c-0.54666 0 -1.0033 0.21666 -1.37 0.65 s-0.55 1.0033 -0.55 1.71 l0 6.02 l-2.84 0 l0 -10.34 l2.68 0 l0 1.4 l0.04 0 c0.78666 -1.12 1.84 -1.68 3.16 -1.68 z M36.94 9.38 c3.0134 0.01334 4.52 0.9933 4.52 2.94 l0 5.48 c0 1.0133 0.12 1.7467 0.36 2.2 l-2.88 0 c-0.10666 -0.32 -0.17332 -0.65334 -0.19998 -1 c-0.84 0.85334 -2 1.28 -3.48 1.28 c-1.08 0 -1.9367 -0.27334 -2.57 -0.82 s-0.95 -1.3067 -0.95 -2.28 c0 -0.94666 0.3 -1.68 0.9 -2.2 c0.61334 -0.54666 1.7267 -0.89332 3.34 -1.04 c1.1467 -0.12 1.8733 -0.27 2.18 -0.45 s0.46 -0.45666 0.46 -0.83 c0 -0.46666 -0.14 -0.81332 -0.42 -1.04 s-0.74666 -0.34 -1.4 -0.34 c-0.6 0 -1.0533 0.12334 -1.36 0.37 s-0.48666 0.64332 -0.54 1.19 l-2.84 0 c0.06666 -1.1333 0.53332 -1.9933 1.4 -2.58 s2.0266 -0.88 3.48 -0.88 z M34.58 17.06 c0 0.88 0.58 1.32 1.74 1.32 c1.52 -0.01334 2.2866 -0.79334 2.3 -2.34 l0 -1.1 c-0.22666 0.22666 -0.8 0.39332 -1.72 0.49998 c-0.8 0.09334 -1.3867 0.25668 -1.76 0.49002 s-0.56 0.61 -0.56 1.13 z M49.699999999999996 9.38 c0.24 0 0.44668 0.03334 0.62002 0.1 l0 2.64 c-0.30666 -0.06666 -0.64666 -0.1 -1.02 -0.1 c-1.8667 0 -2.8 1.1067 -2.8 3.32 l0 4.66 l-2.84 0 l0 -10.34 l2.7 0 l0 1.92 l0.04 0 c0.28 -0.66666 0.72334 -1.2 1.33 -1.6 s1.2633 -0.6 1.97 -0.6 z M55.04 6.5600000000000005 l0.000019531 3.1 l2.08 0 l0 1.9 l-2.08 0 l0 5.12 c0 0.48 0.08 0.8 0.24 0.96 s0.48 0.24 0.96 0.24 c0.34666 0 0.64 -0.02666 0.88 -0.08 l0 2.22 c-0.4 0.06666 -0.96 0.1 -1.68 0.1 c-1.0933 0 -1.9067 -0.18666 -2.44 -0.56 s-0.8 -1.02 -0.8 -1.94 l0 -6.06 l-1.72 0 l0 -1.9 l1.72 0 l0 -3.1 l2.84 0 z M71.08 5.720000000000001 c3.0266 0 4.54 1.1733 4.54 3.52 c0 1.3467 -0.64666 2.3466 -1.94 3 c0.88 0.25334 1.5367 0.69668 1.97 1.33 s0.65 1.3967 0.65 2.29 c0 1.28 -0.46334 2.29 -1.39 3.03 s-2.1434 1.11 -3.65 1.11 l-6.92 0 l0 -14.28 l6.74 0 z M70.68 11.5 c1.2667 0 1.9 -0.56666 1.9 -1.7 c0 -1.0933 -0.70666 -1.64 -2.12 -1.64 l-2.98 0 l0 3.34 l3.2 0 z M70.86 17.56 c1.5333 0 2.3 -0.62666 2.3 -1.88 c0 -1.36 -0.74666 -2.04 -2.24 -2.04 l-3.44 0 l0 3.92 l3.38 0 z M84.16000000000001 9.38 c0.24 0 0.44668 0.03334 0.62002 0.1 l0 2.64 c-0.30666 -0.06666 -0.64666 -0.1 -1.02 -0.1 c-1.8667 0 -2.8 1.1067 -2.8 3.32 l0 4.66 l-2.84 0 l0 -10.34 l2.7 0 l0 1.92 l0.04 0 c0.28 -0.66666 0.72334 -1.2 1.33 -1.6 s1.2633 -0.6 1.97 -0.6 z M90.66000000000001 9.38 c3.0134 0.01334 4.52 0.9933 4.52 2.94 l0 5.48 c0 1.0133 0.12 1.7467 0.36 2.2 l-2.88 0 c-0.10666 -0.32 -0.17332 -0.65334 -0.19998 -1 c-0.84 0.85334 -2 1.28 -3.48 1.28 c-1.08 0 -1.9367 -0.27334 -2.57 -0.82 s-0.95 -1.3067 -0.95 -2.28 c0 -0.94666 0.3 -1.68 0.9 -2.2 c0.61334 -0.54666 1.7267 -0.89332 3.34 -1.04 c1.1467 -0.12 1.8733 -0.27 2.18 -0.45 s0.46 -0.45666 0.46 -0.83 c0 -0.46666 -0.14 -0.81332 -0.42 -1.04 s-0.74666 -0.34 -1.4 -0.34 c-0.6 0 -1.0533 0.12334 -1.36 0.37 s-0.48666 0.64332 -0.54 1.19 l-2.84 0 c0.06666 -1.1333 0.53332 -1.9933 1.4 -2.58 s2.0266 -0.88 3.48 -0.88 z M88.30000000000001 17.06 c0 0.88 0.58 1.32 1.74 1.32 c1.52 -0.01334 2.2866 -0.79334 2.3 -2.34 l0 -1.1 c-0.22666 0.22666 -0.8 0.39332 -1.72 0.49998 c-0.8 0.09334 -1.3867 0.25668 -1.76 0.49002 s-0.56 0.61 -0.56 1.13 z M100.30000000000001 5.720000000000001 l0 2.34 l-2.84 0 l0 -2.34 l2.84 0 z M100.30000000000001 9.66 l0 10.34 l-2.84 0 l0 -10.34 l2.84 0 z M108.48 9.38 c1.32 0 2.2766 0.33338 2.87 1 s0.89 1.7267 0.89 3.18 l0 6.44 l-2.84 0 l0 -5.86 c0 -0.85334 -0.13666 -1.4867 -0.41 -1.9 s-0.74334 -0.62 -1.41 -0.62 c-0.77334 0 -1.3333 0.23334 -1.68 0.7 s-0.52 1.2333 -0.52 2.3 l0 5.38 l-2.84 0 l0 -10.34 l2.7 0 l0 1.44 l0.06 0 c0.70666 -1.1467 1.7667 -1.72 3.18 -1.72 z"/></g>
			</g>
		</svg>
	